<svg width="92" height="14" viewBox="0 0 92 14" fill="none" xmlns="http://www.w3.org/2000/svg">
<path d="M7.58563 0L9.37635 5.34752H15.1713L10.4831 8.65248L12.2738 14L7.58563 10.695L2.89745 14L4.68817 8.65248L0 5.34752H5.7949L7.58563 0Z" fill="white"/>
<path d="M26.7568 0L28.5475 5.34752H34.3424L29.6542 8.65248L31.4449 14L26.7568 10.695L22.0686 14L23.8593 8.65248L19.1711 5.34752H24.966L26.7568 0Z" fill="white"/>
<path d="M45.9282 0L47.7189 5.34752H53.5138L48.8256 8.65248L50.6163 14L45.9282 10.695L41.24 14L43.0307 8.65248L38.3425 5.34752H44.1374L45.9282 0Z" fill="white"/>
<path d="M65.0993 0L66.89 5.34752H72.6849L67.9967 8.65248L69.7875 14L65.0993 10.695L60.4111 14L62.2018 8.65248L57.5137 5.34752H63.3086L65.0993 0Z" fill="white"/>
<path d="M84.2707 0L86.0614 5.34752H91.8563L87.1681 8.65248L88.9589 14L84.2707 10.695L79.5825 14L81.3732 8.65248L76.6851 5.34752H82.48L84.2707 0Z" fill="white"/>
</svg>
