<svg width="41" height="34" viewBox="0 0 41 34" fill="none" xmlns="http://www.w3.org/2000/svg">
<g clip-path="url(#clip0_128_225)">
<mask id="path-1-inside-1_128_225" fill="white">
<path d="M0.5 29.3927C0.689274 29.0881 0.957026 28.9634 1.32172 28.9865C1.69566 29.0096 2.0742 28.9911 2.40197 28.9911C2.40197 23.8807 2.40197 18.8165 2.40659 13.7523C2.40659 13.6092 2.39735 13.4245 2.48045 13.3368C2.62356 13.1798 2.8313 12.9813 3.01595 12.9767C3.20061 12.9767 3.43605 13.1568 3.55146 13.3276C3.6484 13.4661 3.62994 13.7015 3.62994 13.8954C3.63456 18.6365 3.63456 23.3729 3.63456 28.114C3.63456 28.8434 3.78228 28.9911 4.49783 28.9911C5.81813 28.9911 7.14304 28.9911 8.46334 28.9911C8.58798 28.9911 8.71263 28.9911 8.8188 28.9911C8.24637 28.4141 7.64162 27.8924 7.15227 27.2784C6.01202 25.8427 5.49036 24.19 5.60577 22.3481C5.78119 19.6013 7.09226 17.5562 9.47434 16.199C9.70978 16.0651 9.79287 15.9174 9.78826 15.6496C9.77441 14.3663 9.77902 13.0829 9.78364 11.7995C9.78364 11.1994 9.98215 10.9963 10.5777 10.9917C11.187 10.987 11.801 10.9917 12.4427 10.9917C12.4427 10.0314 12.4612 9.11738 12.4335 8.20333C12.4242 7.84786 12.1426 7.70475 11.7964 7.70475C10.9331 7.70475 10.0699 7.70475 9.20197 7.70475C7.64623 7.70475 6.08588 7.70475 4.53014 7.70475C3.76381 7.70475 3.63456 7.8294 3.63456 8.58188C3.63456 9.33897 3.63456 10.1007 3.63456 10.8578C3.63456 10.964 3.63917 11.0701 3.62071 11.1717C3.56069 11.5041 3.38527 11.7303 3.02519 11.7349C2.66511 11.7395 2.42967 11.5179 2.42967 11.1855C2.42043 10.073 2.40197 8.96042 2.48968 7.85248C2.54508 7.14155 3.23293 6.59219 3.94847 6.53218C4.3224 6.49987 4.70557 6.52756 5.11643 6.52756C5.12566 6.34752 5.13951 6.22288 5.13951 6.09824C5.13951 5.29959 5.13489 4.50095 5.14413 3.70231C5.15336 2.66361 5.88276 1.91575 6.91222 1.9019C7.66008 1.89267 8.40333 1.89267 9.15119 1.9019C10.1853 1.91575 10.9239 2.65438 10.9424 3.69308C10.9608 4.5979 10.9562 5.4981 10.9608 6.40292C10.9608 6.41677 10.9701 6.426 10.9931 6.50448C11.1501 6.50448 11.3255 6.51371 11.5056 6.50448C12.909 6.40754 13.7492 7.24311 13.6661 8.67882C13.6337 9.30665 13.6614 9.93449 13.6614 10.5623C13.6614 10.6916 13.6753 10.8162 13.6845 10.9917C14.28 10.9917 14.8525 10.987 15.4249 10.9917C16.0897 10.9963 16.279 11.1902 16.2836 11.8642C16.2836 12.6213 16.2836 13.3783 16.2836 14.2509C17.7747 12.5105 19.6628 12.1227 21.7679 12.215C21.6756 12.1411 21.5832 12.0673 21.4863 11.998C18.8688 10.1422 17.6408 7.59858 17.7377 4.40401C17.7562 3.79464 17.9363 3.60998 18.541 3.57305C20.226 3.47149 21.8094 3.83157 23.2867 4.65791C23.4206 4.73177 23.5544 4.81025 23.656 4.86565C23.9838 4.09009 24.27 3.30991 24.6393 2.56667C25.0871 1.66646 25.7426 0.913986 26.4997 0.258453C26.9014 -0.0877787 27.1368 -0.0877787 27.5292 0.258453C28.8587 1.41718 29.7543 2.84827 30.2067 4.55173C30.2344 4.66253 30.276 4.7687 30.3221 4.9072C31.2269 4.34399 32.1641 3.90543 33.1936 3.74847C33.9645 3.62845 34.7539 3.59152 35.5341 3.58228C36.0881 3.57767 36.2542 3.78079 36.2773 4.32553C36.4343 7.54318 35.1925 10.0914 32.5796 11.975C32.478 12.0488 32.3764 12.1227 32.1779 12.2704C32.7919 12.2704 33.2951 12.2658 33.7983 12.2704C36.1434 12.2981 38.147 13.6969 38.8902 15.8851C39.0703 16.4206 39.1672 17.0069 39.1764 17.5747C39.1995 20.086 39.1995 22.602 39.1672 25.1133C39.1487 26.5306 38.5394 27.7077 37.5376 28.691C37.4637 28.7603 37.3668 28.8065 37.2791 28.8618C37.2976 28.8942 37.3206 28.9265 37.3391 28.9588C37.4499 28.968 37.5561 28.9819 37.6669 28.9819C38.4794 28.9865 39.2919 28.9726 40.0997 28.9911C40.5844 29.0003 40.8337 29.3604 40.6906 29.8174C39.9797 32.1072 37.8792 33.8384 35.451 33.9353C34.1722 33.9861 32.8889 33.9769 31.6055 33.9861C31.3193 33.9907 31.0192 33.9261 30.9361 33.6214C30.8853 33.4367 30.9038 33.1459 31.0192 33.0166C31.1531 32.8689 31.4255 32.7812 31.6378 32.7766C32.815 32.7535 33.9968 32.7997 35.174 32.7535C36.9744 32.6843 38.3086 31.8117 39.2411 30.2052C26.8183 30.2052 14.4462 30.2052 2.03727 30.2052C2.44813 31.0454 3.06673 31.6594 3.84229 32.1164C4.64094 32.5873 5.50883 32.7673 6.43211 32.7673C13.8692 32.7627 21.3062 32.7627 28.7433 32.7673C28.9234 32.7673 29.1542 32.7443 29.2742 32.8366C29.445 32.9751 29.6435 33.2151 29.6343 33.4044C29.625 33.5891 29.3942 33.7922 29.2188 33.9307C29.1126 34.0092 28.9187 33.9861 28.7618 33.9861C21.3386 33.9861 13.9153 33.9907 6.49212 33.9861C4.4609 33.9861 2.75282 33.2705 1.52023 31.6225C1.10475 31.0685 0.850849 30.3945 0.523082 29.7713C0.5 29.6559 0.5 29.522 0.5 29.3927ZM20.383 23.9823C20.5168 23.9915 20.6322 24.01 20.743 24.01C24.1453 24.01 27.5477 24.0146 30.9546 24.0054C31.1993 24.0054 31.4532 23.9869 31.6886 23.9177C32.5472 23.673 33.0089 22.9667 33.0135 21.928C33.0227 20.6677 32.6165 19.9475 31.7163 19.6844C31.4439 19.6059 31.1485 19.5782 30.8669 19.5782C27.5661 19.569 24.27 19.5736 20.9692 19.5736C20.5353 19.5736 20.2814 19.352 20.2675 19.0012C20.2537 18.6457 20.5122 18.3872 20.9277 18.3872C24.4085 18.3872 27.8893 18.3872 31.3747 18.401C31.9656 18.401 32.4965 18.6318 32.9673 18.9827C34.223 19.9152 34.4492 21.3371 34.0845 22.9621C33.766 24.3747 32.538 25.2195 31.0238 25.2195C27.4876 25.2241 23.9561 25.2241 20.4199 25.2149C20.166 25.2149 20.0229 25.2703 19.9213 25.5242C19.4043 26.8491 18.541 27.9155 17.4007 28.7603C17.3315 28.8111 17.2715 28.8711 17.1376 28.9865C17.313 28.9865 17.4007 28.9865 17.4838 28.9865C22.8897 28.9865 28.2955 28.9865 33.7014 28.9819C34.0384 28.9819 34.3846 28.9496 34.7124 28.8711C36.6605 28.4187 37.9716 26.7614 37.9762 24.7578C37.9808 22.4265 37.9808 20.0999 37.9762 17.7686C37.9716 15.3126 36.185 13.5076 33.7244 13.4984C29.3388 13.4845 24.9532 13.4799 20.5676 13.5122C19.9582 13.5168 19.3119 13.6461 18.7441 13.8723C17.6962 14.2878 16.976 15.0818 16.5652 16.1759C17.9593 16.9607 19.0119 18.0409 19.709 19.4536C20.4153 20.8847 20.5953 22.3896 20.383 23.9823ZM10.9978 15.031C10.9978 15.4511 10.9978 15.8527 10.9978 16.2544C10.9978 16.6006 10.8731 16.8591 10.5361 16.9976C10.393 17.0576 10.2545 17.1407 10.116 17.21C7.70625 18.438 6.33517 21.3001 6.89375 23.9361C7.65085 27.5138 11.0993 29.6605 14.6447 28.7603C18.5133 27.777 20.4568 23.216 18.5041 19.7444C17.8208 18.5257 16.8606 17.6255 15.5957 17.0484C15.1987 16.8684 15.0187 16.596 15.0418 16.1574C15.0602 15.7835 15.0464 15.4096 15.0464 15.031C13.6753 15.031 12.3596 15.031 10.9978 15.031ZM27.0122 1.44026C23.7483 4.50095 24.2561 9.63904 27.0352 11.9934C30.0082 9.13123 30.0082 4.2886 27.0122 1.44026ZM28.5171 12.1919C32.478 11.9057 35.3033 8.14331 35.0401 4.81487C35.0078 4.80564 34.9709 4.78717 34.9339 4.78717C33.3505 4.75947 31.9286 5.23958 30.6499 6.16287C30.553 6.23211 30.5114 6.42139 30.4883 6.55988C30.3498 7.46008 30.2898 8.37875 30.0775 9.26049C29.8236 10.3269 29.2465 11.2733 28.5171 12.1919ZM18.9565 4.79179C18.8041 9.00197 22.4142 12.1042 25.4703 12.1596C25.3918 12.0534 25.3225 11.9657 25.2533 11.8734C24.2054 10.4746 23.5868 8.89579 23.5683 7.1554C23.5591 6.37061 23.259 5.98283 22.6219 5.66429C21.4724 5.08724 20.2814 4.72716 18.9565 4.79179ZM6.33517 6.46755C7.48927 6.46755 8.58798 6.46755 9.70978 6.46755C9.70978 5.4981 9.71901 4.56097 9.70516 3.61921C9.70054 3.26375 9.45126 3.11602 9.12811 3.11141C8.39871 3.10217 7.6647 3.10217 6.9353 3.11141C6.55675 3.11602 6.33978 3.32376 6.33517 3.69308C6.32593 4.60713 6.33517 5.52118 6.33517 6.46755ZM15.0325 12.2058C13.6753 12.2058 12.3596 12.2058 11.0255 12.2058C11.0255 12.7413 11.0255 13.2537 11.0255 13.7846C12.3735 13.7846 13.6984 13.7846 15.0325 13.7846C15.0325 13.2491 15.0325 12.7413 15.0325 12.2058Z"/>
</mask>
<path d="M0.5 29.3927C0.689274 29.0881 0.957026 28.9634 1.32172 28.9865C1.69566 29.0096 2.0742 28.9911 2.40197 28.9911C2.40197 23.8807 2.40197 18.8165 2.40659 13.7523C2.40659 13.6092 2.39735 13.4245 2.48045 13.3368C2.62356 13.1798 2.8313 12.9813 3.01595 12.9767C3.20061 12.9767 3.43605 13.1568 3.55146 13.3276C3.6484 13.4661 3.62994 13.7015 3.62994 13.8954C3.63456 18.6365 3.63456 23.3729 3.63456 28.114C3.63456 28.8434 3.78228 28.9911 4.49783 28.9911C5.81813 28.9911 7.14304 28.9911 8.46334 28.9911C8.58798 28.9911 8.71263 28.9911 8.8188 28.9911C8.24637 28.4141 7.64162 27.8924 7.15227 27.2784C6.01202 25.8427 5.49036 24.19 5.60577 22.3481C5.78119 19.6013 7.09226 17.5562 9.47434 16.199C9.70978 16.0651 9.79287 15.9174 9.78826 15.6496C9.77441 14.3663 9.77902 13.0829 9.78364 11.7995C9.78364 11.1994 9.98215 10.9963 10.5777 10.9917C11.187 10.987 11.801 10.9917 12.4427 10.9917C12.4427 10.0314 12.4612 9.11738 12.4335 8.20333C12.4242 7.84786 12.1426 7.70475 11.7964 7.70475C10.9331 7.70475 10.0699 7.70475 9.20197 7.70475C7.64623 7.70475 6.08588 7.70475 4.53014 7.70475C3.76381 7.70475 3.63456 7.8294 3.63456 8.58188C3.63456 9.33897 3.63456 10.1007 3.63456 10.8578C3.63456 10.964 3.63917 11.0701 3.62071 11.1717C3.56069 11.5041 3.38527 11.7303 3.02519 11.7349C2.66511 11.7395 2.42967 11.5179 2.42967 11.1855C2.42043 10.073 2.40197 8.96042 2.48968 7.85248C2.54508 7.14155 3.23293 6.59219 3.94847 6.53218C4.3224 6.49987 4.70557 6.52756 5.11643 6.52756C5.12566 6.34752 5.13951 6.22288 5.13951 6.09824C5.13951 5.29959 5.13489 4.50095 5.14413 3.70231C5.15336 2.66361 5.88276 1.91575 6.91222 1.9019C7.66008 1.89267 8.40333 1.89267 9.15119 1.9019C10.1853 1.91575 10.9239 2.65438 10.9424 3.69308C10.9608 4.5979 10.9562 5.4981 10.9608 6.40292C10.9608 6.41677 10.9701 6.426 10.9931 6.50448C11.1501 6.50448 11.3255 6.51371 11.5056 6.50448C12.909 6.40754 13.7492 7.24311 13.6661 8.67882C13.6337 9.30665 13.6614 9.93449 13.6614 10.5623C13.6614 10.6916 13.6753 10.8162 13.6845 10.9917C14.28 10.9917 14.8525 10.987 15.4249 10.9917C16.0897 10.9963 16.279 11.1902 16.2836 11.8642C16.2836 12.6213 16.2836 13.3783 16.2836 14.2509C17.7747 12.5105 19.6628 12.1227 21.7679 12.215C21.6756 12.1411 21.5832 12.0673 21.4863 11.998C18.8688 10.1422 17.6408 7.59858 17.7377 4.40401C17.7562 3.79464 17.9363 3.60998 18.541 3.57305C20.226 3.47149 21.8094 3.83157 23.2867 4.65791C23.4206 4.73177 23.5544 4.81025 23.656 4.86565C23.9838 4.09009 24.27 3.30991 24.6393 2.56667C25.0871 1.66646 25.7426 0.913986 26.4997 0.258453C26.9014 -0.0877787 27.1368 -0.0877787 27.5292 0.258453C28.8587 1.41718 29.7543 2.84827 30.2067 4.55173C30.2344 4.66253 30.276 4.7687 30.3221 4.9072C31.2269 4.34399 32.1641 3.90543 33.1936 3.74847C33.9645 3.62845 34.7539 3.59152 35.5341 3.58228C36.0881 3.57767 36.2542 3.78079 36.2773 4.32553C36.4343 7.54318 35.1925 10.0914 32.5796 11.975C32.478 12.0488 32.3764 12.1227 32.1779 12.2704C32.7919 12.2704 33.2951 12.2658 33.7983 12.2704C36.1434 12.2981 38.147 13.6969 38.8902 15.8851C39.0703 16.4206 39.1672 17.0069 39.1764 17.5747C39.1995 20.086 39.1995 22.602 39.1672 25.1133C39.1487 26.5306 38.5394 27.7077 37.5376 28.691C37.4637 28.7603 37.3668 28.8065 37.2791 28.8618C37.2976 28.8942 37.3206 28.9265 37.3391 28.9588C37.4499 28.968 37.5561 28.9819 37.6669 28.9819C38.4794 28.9865 39.2919 28.9726 40.0997 28.9911C40.5844 29.0003 40.8337 29.3604 40.6906 29.8174C39.9797 32.1072 37.8792 33.8384 35.451 33.9353C34.1722 33.9861 32.8889 33.9769 31.6055 33.9861C31.3193 33.9907 31.0192 33.9261 30.9361 33.6214C30.8853 33.4367 30.9038 33.1459 31.0192 33.0166C31.1531 32.8689 31.4255 32.7812 31.6378 32.7766C32.815 32.7535 33.9968 32.7997 35.174 32.7535C36.9744 32.6843 38.3086 31.8117 39.2411 30.2052C26.8183 30.2052 14.4462 30.2052 2.03727 30.2052C2.44813 31.0454 3.06673 31.6594 3.84229 32.1164C4.64094 32.5873 5.50883 32.7673 6.43211 32.7673C13.8692 32.7627 21.3062 32.7627 28.7433 32.7673C28.9234 32.7673 29.1542 32.7443 29.2742 32.8366C29.445 32.9751 29.6435 33.2151 29.6343 33.4044C29.625 33.5891 29.3942 33.7922 29.2188 33.9307C29.1126 34.0092 28.9187 33.9861 28.7618 33.9861C21.3386 33.9861 13.9153 33.9907 6.49212 33.9861C4.4609 33.9861 2.75282 33.2705 1.52023 31.6225C1.10475 31.0685 0.850849 30.3945 0.523082 29.7713C0.5 29.6559 0.5 29.522 0.5 29.3927ZM20.383 23.9823C20.5168 23.9915 20.6322 24.01 20.743 24.01C24.1453 24.01 27.5477 24.0146 30.9546 24.0054C31.1993 24.0054 31.4532 23.9869 31.6886 23.9177C32.5472 23.673 33.0089 22.9667 33.0135 21.928C33.0227 20.6677 32.6165 19.9475 31.7163 19.6844C31.4439 19.6059 31.1485 19.5782 30.8669 19.5782C27.5661 19.569 24.27 19.5736 20.9692 19.5736C20.5353 19.5736 20.2814 19.352 20.2675 19.0012C20.2537 18.6457 20.5122 18.3872 20.9277 18.3872C24.4085 18.3872 27.8893 18.3872 31.3747 18.401C31.9656 18.401 32.4965 18.6318 32.9673 18.9827C34.223 19.9152 34.4492 21.3371 34.0845 22.9621C33.766 24.3747 32.538 25.2195 31.0238 25.2195C27.4876 25.2241 23.9561 25.2241 20.4199 25.2149C20.166 25.2149 20.0229 25.2703 19.9213 25.5242C19.4043 26.8491 18.541 27.9155 17.4007 28.7603C17.3315 28.8111 17.2715 28.8711 17.1376 28.9865C17.313 28.9865 17.4007 28.9865 17.4838 28.9865C22.8897 28.9865 28.2955 28.9865 33.7014 28.9819C34.0384 28.9819 34.3846 28.9496 34.7124 28.8711C36.6605 28.4187 37.9716 26.7614 37.9762 24.7578C37.9808 22.4265 37.9808 20.0999 37.9762 17.7686C37.9716 15.3126 36.185 13.5076 33.7244 13.4984C29.3388 13.4845 24.9532 13.4799 20.5676 13.5122C19.9582 13.5168 19.3119 13.6461 18.7441 13.8723C17.6962 14.2878 16.976 15.0818 16.5652 16.1759C17.9593 16.9607 19.0119 18.0409 19.709 19.4536C20.4153 20.8847 20.5953 22.3896 20.383 23.9823ZM10.9978 15.031C10.9978 15.4511 10.9978 15.8527 10.9978 16.2544C10.9978 16.6006 10.8731 16.8591 10.5361 16.9976C10.393 17.0576 10.2545 17.1407 10.116 17.21C7.70625 18.438 6.33517 21.3001 6.89375 23.9361C7.65085 27.5138 11.0993 29.6605 14.6447 28.7603C18.5133 27.777 20.4568 23.216 18.5041 19.7444C17.8208 18.5257 16.8606 17.6255 15.5957 17.0484C15.1987 16.8684 15.0187 16.596 15.0418 16.1574C15.0602 15.7835 15.0464 15.4096 15.0464 15.031C13.6753 15.031 12.3596 15.031 10.9978 15.031ZM27.0122 1.44026C23.7483 4.50095 24.2561 9.63904 27.0352 11.9934C30.0082 9.13123 30.0082 4.2886 27.0122 1.44026ZM28.5171 12.1919C32.478 11.9057 35.3033 8.14331 35.0401 4.81487C35.0078 4.80564 34.9709 4.78717 34.9339 4.78717C33.3505 4.75947 31.9286 5.23958 30.6499 6.16287C30.553 6.23211 30.5114 6.42139 30.4883 6.55988C30.3498 7.46008 30.2898 8.37875 30.0775 9.26049C29.8236 10.3269 29.2465 11.2733 28.5171 12.1919ZM18.9565 4.79179C18.8041 9.00197 22.4142 12.1042 25.4703 12.1596C25.3918 12.0534 25.3225 11.9657 25.2533 11.8734C24.2054 10.4746 23.5868 8.89579 23.5683 7.1554C23.5591 6.37061 23.259 5.98283 22.6219 5.66429C21.4724 5.08724 20.2814 4.72716 18.9565 4.79179ZM6.33517 6.46755C7.48927 6.46755 8.58798 6.46755 9.70978 6.46755C9.70978 5.4981 9.71901 4.56097 9.70516 3.61921C9.70054 3.26375 9.45126 3.11602 9.12811 3.11141C8.39871 3.10217 7.6647 3.10217 6.9353 3.11141C6.55675 3.11602 6.33978 3.32376 6.33517 3.69308C6.32593 4.60713 6.33517 5.52118 6.33517 6.46755ZM15.0325 12.2058C13.6753 12.2058 12.3596 12.2058 11.0255 12.2058C11.0255 12.7413 11.0255 13.2537 11.0255 13.7846C12.3735 13.7846 13.6984 13.7846 15.0325 13.7846C15.0325 13.2491 15.0325 12.7413 15.0325 12.2058Z" fill="#3F3D56" stroke="#3F3D56" stroke-width="0.32381" mask="url(#path-1-inside-1_128_225)"/>
</g>
<defs>
<clipPath id="clip0_128_225">
<rect width="40.2183" height="34" fill="white" transform="translate(0.5)"/>
</clipPath>
</defs>
</svg>
