<svg width="165" height="28" viewBox="0 0 165 28" fill="none" xmlns="http://www.w3.org/2000/svg">
<g clip-path="url(#clip0_182_185)">
<path d="M15.7576 9.93548V7.92153L17.442 7.0061C18.0035 6.71316 18.4551 6.28596 18.748 5.78553C19.0532 5.27289 19.2241 4.61377 19.2241 3.97908V0.915432V0L18.7602 0.268527L16.8317 1.36704C16.3069 1.67219 15.8797 2.09939 15.5867 2.58762C15.306 3.08806 15.1473 4.06452 15.1473 4.6748V5.71229V6.54228L15.4403 6.38361C15.6356 6.27376 15.7576 6.07847 15.7576 5.84656V5.71229V4.6748C15.7576 4.17437 15.8797 3.69834 16.1238 3.29555C16.3557 2.89276 16.6975 2.5388 17.1369 2.29468L18.6138 1.44028V3.97908C18.6138 4.50392 18.4795 4.97995 18.2354 5.39494C17.9913 5.80994 17.6251 6.1517 17.1735 6.40802L15.4769 7.31125C15.2694 7.4211 15.1473 7.61639 15.1473 7.8483V10.619L15.4403 10.4603C15.6356 10.3627 15.7576 10.1674 15.7576 9.93548ZM11.5466 7.01831L13.2432 7.92153V9.93548C13.2432 10.1674 13.3653 10.3627 13.5728 10.4725L13.8535 10.6312V7.86051C13.8535 7.6286 13.7315 7.4211 13.5362 7.32345L11.8396 6.40802C11.3758 6.16391 11.0096 5.82214 10.7655 5.40715C10.5214 4.99215 10.3871 4.50392 10.3871 3.97908V1.45248L11.864 2.29468C12.3034 2.551 12.6452 2.89276 12.8893 3.29555C13.1212 3.69834 13.2432 4.17437 13.2432 4.68701V5.71229V5.85876C13.2432 6.07847 13.3653 6.28596 13.5728 6.39582L13.8535 6.54228V5.71229V4.68701C13.8535 4.06452 13.7071 3.10026 13.4141 2.59983C13.1212 2.09939 12.7062 1.68439 12.1691 1.37925L10.2406 0.268527L9.78901 0.0122058V0.927637V3.97908C9.78901 4.61377 9.94769 5.27289 10.2528 5.78553C10.5458 6.28596 10.9974 6.71316 11.5466 7.01831ZM6.73758 8.78814L7.6408 9.30078L8.36094 9.71578V9.39843C8.37315 9.16652 8.2633 8.95902 8.0558 8.83697L7.94595 8.77594L7.05493 8.2633C6.61552 8.00697 6.26155 7.66521 6.02964 7.25022C5.79773 6.84743 5.67568 6.3714 5.67568 5.87097V4.16216L7.87271 5.43156C8.32432 5.70009 8.67829 6.05405 8.9102 6.46905C9.14211 6.89625 9.26417 7.38448 9.25196 7.89712L9.19093 9.82563C9.17873 10.0575 9.28858 10.265 9.49608 10.3749L11.8884 11.7541L11.9006 11.4368C11.9128 11.2049 11.803 10.9974 11.5955 10.8875L9.85004 9.87446L9.91107 7.95815C9.93548 7.32345 9.78902 6.72537 9.50828 6.21273C9.21535 5.70009 8.72711 5.22406 8.17786 4.90671L5.52921 3.38099L4.73583 2.91718V3.44202L4.72363 5.66347C4.71142 6.28596 4.8701 6.85963 5.16303 7.36007C5.44377 7.86051 6.21273 8.483 6.73758 8.78814ZM3.45423 13.0846C4.00349 13.4019 4.65039 13.585 5.24847 13.585C5.83435 13.5728 6.42023 13.4019 6.96949 13.0724L8.60506 12.0593L10.3383 13.0602C10.5458 13.17 10.7777 13.17 10.973 13.048L11.2537 12.8771L8.84917 11.4856C8.64167 11.3758 8.42197 11.3758 8.21447 11.4978L6.5789 12.5109C6.13949 12.7916 5.66347 12.9381 5.17524 12.9381C4.69922 12.9503 4.21099 12.816 3.75937 12.5597L1.56234 11.2903L3.03923 10.4359C3.47864 10.1796 3.94246 10.0575 4.41848 10.0575C4.8823 10.0575 5.35833 10.1796 5.79773 10.4359L6.68875 10.9486L6.81081 11.0218C7.0061 11.1316 7.23801 11.1316 7.4333 11.0096L7.71404 10.8387L6.9939 10.4237L6.10288 9.91107C5.56582 9.59372 4.65039 9.25196 4.06452 9.25196C3.49085 9.25196 2.91718 9.41064 2.38012 9.71578L0.463819 10.8387L0 11.1072L0.793374 11.5588L3.45423 13.0846ZM9.86225 18.1378L11.6077 17.1369C11.803 17.027 11.9128 16.8195 11.9006 16.5876V16.2581L9.49608 17.6495C9.30079 17.7594 9.19093 17.9669 9.19093 18.1988L9.25196 20.1151C9.26417 20.6399 9.15432 21.1282 8.9102 21.5432C8.67829 21.9704 8.32432 22.3243 7.87271 22.5929L5.68788 23.85L5.67568 22.1534C5.67568 21.6408 5.79773 21.177 6.02964 20.762C6.26155 20.3592 6.60331 20.0174 7.05493 19.7611L7.94595 19.2485L8.068 19.1752C8.2633 19.0654 8.37315 18.8579 8.37315 18.626L8.36094 18.2964L7.6408 18.7114L6.74978 19.2363C6.21273 19.5414 5.45597 20.1639 5.16303 20.6521C4.8701 21.1526 4.72363 21.7384 4.72363 22.3487L4.73583 24.5702V25.095L5.52921 24.6434L8.17786 23.1177C8.72711 22.8003 9.21535 22.3243 9.50828 21.8117C9.80122 21.2868 9.93548 20.6888 9.92328 20.0663L9.86225 18.1378ZM6.9939 17.5885L7.71404 17.1735L7.4333 17.0026C7.23801 16.8806 7.0061 16.8806 6.81081 16.9904L6.68875 17.0636L5.79773 17.5763C5.35833 17.8326 4.8823 17.9669 4.41848 17.9547C3.95466 17.9547 3.47864 17.8326 3.03923 17.5763L1.57454 16.7219L3.75937 15.4525C4.21099 15.184 4.69922 15.0619 5.18745 15.0741C5.66347 15.0741 6.1517 15.2206 6.59111 15.5013L8.22668 16.5144C8.42197 16.6364 8.65388 16.6364 8.84917 16.5266L11.2537 15.1351L10.973 14.9643C10.7777 14.8422 10.5458 14.8422 10.3505 14.952L8.60506 15.9529L6.96949 14.9398C6.43243 14.6103 5.84656 14.4394 5.24847 14.4272C4.6626 14.415 4.00349 14.6103 3.45423 14.9276L0.80558 16.4534L0.0122058 16.9172L0.476024 17.1735L2.39233 18.2964C2.92938 18.6138 3.50305 18.7602 4.07672 18.7724C4.65039 18.7724 5.57803 18.4185 6.10288 18.1133L6.9939 17.5885ZM17.4542 20.9939L15.7698 20.0785V18.0767C15.7698 17.8448 15.6478 17.6373 15.4403 17.5397L15.1595 17.381V20.1517C15.1595 20.3836 15.2694 20.5789 15.4769 20.6888L17.1735 21.592C17.6251 21.8483 17.9913 22.1901 18.2476 22.6051C18.4917 23.0201 18.626 23.4961 18.626 24.0209V26.5597L17.1491 25.7053C16.7097 25.4612 16.3557 25.1194 16.1238 24.7044C15.8919 24.3017 15.7576 23.8378 15.7576 23.3252V22.2877V22.1534C15.7576 21.9215 15.6356 21.7262 15.4403 21.6164L15.1473 21.4699V22.2877V23.3252C15.1473 23.9355 15.306 24.9119 15.599 25.4124C15.8797 25.9128 16.3069 26.3278 16.8439 26.633L18.7725 27.7437L19.2241 28V27.0846V24.0209C19.2241 23.3984 19.0654 22.7271 18.7602 22.2267C18.4551 21.714 18.0157 21.2868 17.4542 20.9939ZM13.2554 18.0767V20.0785L11.5588 20.9939C10.9974 21.2868 10.558 21.714 10.2528 22.2267C9.94769 22.7271 9.78901 23.3984 9.78901 24.0209V27.0846V28L10.2406 27.7437L12.1691 26.633C12.7062 26.3278 13.1334 25.9006 13.4141 25.4124C13.7071 24.9119 13.8657 23.9355 13.8657 23.3252V22.2877V21.4699L13.5728 21.6164C13.3775 21.7262 13.2554 21.9215 13.2554 22.1534V22.2877V23.3252C13.2554 23.8378 13.1212 24.3017 12.8893 24.7044C12.6574 25.1194 12.3034 25.4612 11.864 25.7053L10.3871 26.5597V24.0209C10.3871 23.4961 10.5214 23.0201 10.7655 22.6051C11.0218 22.1901 11.388 21.8483 11.8396 21.592L13.5362 20.6888C13.7437 20.5789 13.8535 20.3836 13.8535 20.1517V17.381L13.5728 17.5397C13.3775 17.6373 13.2554 17.8448 13.2554 18.0767ZM28.2075 16.4412L25.5588 14.9154C25.0096 14.5981 24.3505 14.415 23.7646 14.415C23.1665 14.4272 22.5806 14.5981 22.0436 14.9398L20.408 15.9529L18.6626 14.9398C18.4673 14.83 18.2354 14.83 18.0401 14.952L17.7594 15.1229L20.1639 16.5144C20.3592 16.6242 20.5911 16.6242 20.7864 16.5022L22.422 15.4891C22.8614 15.2084 23.3496 15.0741 23.8256 15.0619C24.3017 15.0619 24.7899 15.184 25.2415 15.4403L27.4385 16.7097L25.9738 17.5641C25.5344 17.8204 25.0584 17.9425 24.5946 17.9425C24.1186 17.9425 23.6548 17.8204 23.2153 17.5641L22.3121 17.0514L22.2023 16.9904C21.9948 16.8684 21.7751 16.8806 21.5676 16.9904L21.299 17.1613L22.0192 17.5763L22.9102 18.1011C23.4473 18.4063 24.3627 18.7602 24.9364 18.7602C25.51 18.748 26.0837 18.6016 26.6208 18.2842L28.5493 17.1613L29.0009 16.905L28.2075 16.4412ZM22.2755 19.2119L21.3723 18.687L20.6521 18.272V18.6016C20.6399 18.8335 20.7498 19.041 20.9573 19.1508L21.0671 19.2241L21.9704 19.7367C22.4098 19.993 22.7515 20.3348 22.9834 20.7376C23.2153 21.1404 23.3374 21.6164 23.3374 22.129V23.8256L21.1404 22.5562C20.6888 22.2999 20.3348 21.9337 20.1029 21.5187C19.871 21.1038 19.7489 20.6155 19.7611 20.0907L19.8221 18.1622C19.8344 17.9303 19.7245 17.735 19.517 17.6129L17.1125 16.2337V16.5632C17.1003 16.7951 17.2101 16.9904 17.4054 17.1125L19.1508 18.1133L19.0898 20.0296C19.0654 20.6643 19.2119 21.2624 19.5048 21.7873C19.7855 22.2999 20.286 22.7759 20.823 23.0933L23.4717 24.619L24.265 25.0706L24.2772 24.5458V22.3243C24.2895 21.714 24.1308 21.1282 23.85 20.6277C23.5693 20.1273 22.8004 19.517 22.2755 19.2119ZM19.163 9.85004L17.4176 10.8631C17.2223 10.973 17.1003 11.1805 17.1125 11.4124L17.1247 11.7297L19.5292 10.3505C19.7245 10.2284 19.8344 10.0331 19.8344 9.80122L19.7733 7.87271C19.7489 7.36007 19.871 6.87184 20.1029 6.44464C20.3348 6.02964 20.6888 5.67568 21.1526 5.40715L23.3374 4.13775L23.3496 5.84656C23.3496 6.34699 23.2276 6.82302 22.9956 7.22581C22.7637 7.6408 22.4098 7.98256 21.9704 8.23888L21.0793 8.75153L20.9573 8.81255C20.762 8.93461 20.6399 9.1299 20.6521 9.36181L20.6643 9.69137L21.3845 9.27637L22.2755 8.76373C22.8126 8.45859 23.5693 7.83609 23.8623 7.33566C24.143 6.83522 24.3017 6.26155 24.2895 5.63906V3.41761L24.2772 2.89276L23.4839 3.35658L20.8352 4.8823C20.2982 5.19965 19.7977 5.67568 19.517 6.18832C19.2241 6.70096 19.0776 7.29904 19.102 7.93374L19.163 9.85004ZM22.0192 10.3871L21.3112 10.8021L21.5798 10.973C21.7751 11.095 22.007 11.1072 22.2145 10.9852L22.3243 10.9119L23.2276 10.3993C23.667 10.1552 24.143 10.0209 24.6068 10.0209C25.0706 10.0209 25.5466 10.1552 25.9861 10.4115L27.4507 11.2659L25.2537 12.5231C24.8021 12.7916 24.3139 12.9137 23.8378 12.9137C23.3618 12.9015 22.8736 12.755 22.4342 12.4865L20.7986 11.4734C20.6033 11.3391 20.3714 11.3391 20.1761 11.4612L17.7716 12.8405L18.0523 13.0113C18.2476 13.1334 18.4795 13.1456 18.6748 13.0235L20.4202 12.0227L22.0558 13.0357C22.5929 13.3653 23.1787 13.5362 23.7768 13.5484C24.3627 13.5606 25.0218 13.3653 25.5711 13.048L28.2075 11.5222L29.0131 11.0584L28.5493 10.8021L26.633 9.67916C26.0959 9.36181 25.5222 9.21534 24.9364 9.21534C24.3627 9.21534 23.4473 9.55711 22.9102 9.86225L22.0192 10.3871Z" fill="white"/>
</g>
<path d="M52.0532 14.492L51.7652 18.26C51.3492 18.948 50.8212 19.564 50.1812 20.108C49.5572 20.636 48.8132 21.06 47.9492 21.38C47.1012 21.684 46.1252 21.836 45.0212 21.836C43.3572 21.82 41.8772 21.452 40.5812 20.732C39.2852 20.012 38.2692 19.004 37.5332 17.708C36.8132 16.396 36.4532 14.852 36.4532 13.076C36.4532 11.332 36.8132 9.812 37.5332 8.516C38.2532 7.204 39.2612 6.188 40.5572 5.468C41.8692 4.732 43.4052 4.364 45.1652 4.364C46.3492 4.364 47.4132 4.524 48.3572 4.844C49.3172 5.148 50.1492 5.532 50.8532 5.996L51.3332 9.38H51.1172C50.7652 7.972 50.0452 6.908 48.9572 6.188C47.8692 5.452 46.6052 5.084 45.1652 5.084C43.7572 5.084 42.5332 5.42 41.4932 6.092C40.4692 6.748 39.6692 7.676 39.0932 8.876C38.5332 10.06 38.2532 11.452 38.2532 13.052C38.2532 14.652 38.5332 16.052 39.0932 17.252C39.6692 18.452 40.4612 19.388 41.4692 20.06C42.4932 20.732 43.6772 21.084 45.0212 21.116C46.1572 21.116 47.2052 20.908 48.1652 20.492C49.1412 20.06 49.9572 19.364 50.6132 18.404C51.2692 17.428 51.6852 16.124 51.8612 14.492H52.0532ZM57.4956 7.1H60.5916C61.3436 7.1 62.0156 7.188 62.6076 7.364C63.2156 7.54 63.7276 7.796 64.1436 8.132C64.5756 8.468 64.9036 8.876 65.1276 9.356C65.3516 9.836 65.4636 10.38 65.4636 10.988C65.4636 11.66 65.3036 12.284 64.9836 12.86C64.6636 13.436 64.2156 13.908 63.6396 14.276C63.0796 14.644 62.4396 14.868 61.7196 14.948C61.9916 15.06 62.3036 15.308 62.6556 15.692C63.0236 16.076 63.3356 16.452 63.5916 16.82C63.5916 16.82 63.6956 16.964 63.9036 17.252C64.1116 17.524 64.3756 17.868 64.6956 18.284C65.0316 18.684 65.3596 19.068 65.6796 19.436C66.0156 19.804 66.3196 20.124 66.5916 20.396C66.8796 20.668 67.1836 20.884 67.5036 21.044C67.8396 21.188 68.2236 21.26 68.6556 21.26V21.5H67.9116C67.0316 21.5 66.3036 21.388 65.7276 21.164C65.1676 20.94 64.7116 20.668 64.3596 20.348C64.0076 20.012 63.7036 19.692 63.4476 19.388C63.3836 19.308 63.2316 19.108 62.9916 18.788C62.7676 18.452 62.5196 18.092 62.2476 17.708C61.9756 17.324 61.7276 16.98 61.5036 16.676C61.2796 16.356 61.1436 16.164 61.0956 16.1C60.7756 15.684 60.4076 15.316 59.9916 14.996C59.5756 14.66 59.1356 14.492 58.6716 14.492V14.252C58.6716 14.252 58.7996 14.26 59.0556 14.276C59.3116 14.276 59.6396 14.268 60.0396 14.252C60.4876 14.236 60.9356 14.204 61.3836 14.156C61.8316 14.092 62.2476 13.916 62.6316 13.628C63.0316 13.34 63.3436 12.86 63.5676 12.188C63.6316 12.012 63.6796 11.804 63.7116 11.564C63.7436 11.324 63.7516 11.076 63.7356 10.82C63.7196 10.372 63.6316 9.972 63.4716 9.62C63.3276 9.268 63.1116 8.964 62.8236 8.708C62.5516 8.452 62.2236 8.252 61.8396 8.108C61.4556 7.964 61.0236 7.884 60.5436 7.868C59.7916 7.836 59.1356 7.828 58.5756 7.844C58.0156 7.86 57.7356 7.86 57.7356 7.844C57.7356 7.828 57.7116 7.764 57.6636 7.652C57.6316 7.524 57.5916 7.404 57.5436 7.292C57.5116 7.164 57.4956 7.1 57.4956 7.1ZM57.7836 7.1V21.5H56.2476V7.1H57.7836ZM56.3196 19.964L56.6076 21.5H54.5676V21.26C54.5676 21.26 54.6236 21.26 54.7356 21.26C54.8476 21.26 54.9036 21.26 54.9036 21.26C55.2876 21.26 55.6076 21.132 55.8636 20.876C56.1196 20.62 56.2556 20.316 56.2716 19.964H56.3196ZM56.3196 8.612H56.2716C56.2556 8.244 56.1196 7.94 55.8636 7.7C55.6076 7.46 55.2876 7.34 54.9036 7.34C54.9036 7.34 54.8476 7.34 54.7356 7.34C54.6236 7.34 54.5676 7.34 54.5676 7.34V7.1H56.6076L56.3196 8.612ZM57.7116 19.964H57.7836C57.7996 20.316 57.9356 20.62 58.1916 20.876C58.4476 21.132 58.7676 21.26 59.1516 21.26C59.1516 21.26 59.1996 21.26 59.2956 21.26C59.4076 21.26 59.4636 21.26 59.4636 21.26L59.4876 21.5H57.4236L57.7116 19.964ZM76.3584 6.764L82.9584 21.356H81.0624L75.9504 8.9L76.3584 6.764ZM71.7264 19.748C71.5504 20.228 71.5744 20.604 71.7984 20.876C72.0224 21.132 72.2784 21.26 72.5664 21.26H72.7584V21.5H68.1744V21.26C68.1744 21.26 68.2064 21.26 68.2704 21.26C68.3344 21.26 68.3664 21.26 68.3664 21.26C68.7024 21.26 69.0464 21.148 69.3984 20.924C69.7504 20.684 70.0544 20.292 70.3104 19.748H71.7264ZM76.3584 6.764L76.5264 8.42L71.0304 21.428H69.5184L75.2064 9.236C75.2064 9.236 75.2464 9.14 75.3264 8.948C75.4224 8.756 75.5264 8.524 75.6384 8.252C75.7664 7.964 75.8784 7.684 75.9744 7.412C76.0704 7.14 76.1264 6.924 76.1424 6.764H76.3584ZM79.1904 15.908V16.628H72.8304V15.908H79.1904ZM80.4144 19.748H82.2384C82.4784 20.292 82.7744 20.684 83.1264 20.924C83.4784 21.148 83.8144 21.26 84.1344 21.26C84.1344 21.26 84.1664 21.26 84.2304 21.26C84.2944 21.26 84.3264 21.26 84.3264 21.26V21.5H79.4064V21.26H79.5984C79.8704 21.26 80.1184 21.132 80.3424 20.876C80.5664 20.604 80.5904 20.228 80.4144 19.748ZM90.0174 21.836L83.4174 7.244H85.3134L90.4254 19.7L90.0174 21.836ZM90.0174 21.836L89.8494 20.18L95.3454 7.172H96.8574L91.1694 19.364C91.1694 19.364 91.1214 19.46 91.0254 19.652C90.9454 19.844 90.8414 20.084 90.7134 20.372C90.6014 20.644 90.4974 20.916 90.4014 21.188C90.3054 21.46 90.2494 21.676 90.2334 21.836H90.0174ZM94.6494 8.852C94.8254 8.372 94.8014 8.004 94.5774 7.748C94.3534 7.476 94.0974 7.34 93.8094 7.34H93.6414V7.1H98.2014V7.34C98.2014 7.34 98.1694 7.34 98.1054 7.34C98.0414 7.34 98.0094 7.34 98.0094 7.34C97.6734 7.34 97.3294 7.46 96.9774 7.7C96.6254 7.924 96.3214 8.308 96.0654 8.852H94.6494ZM85.9614 8.852H84.1374C83.8974 8.308 83.6014 7.924 83.2494 7.7C82.8974 7.46 82.5614 7.34 82.2414 7.34C82.2414 7.34 82.2094 7.34 82.1454 7.34C82.0814 7.34 82.0494 7.34 82.0494 7.34V7.1H86.9694V7.34H86.7774C86.5054 7.34 86.2574 7.476 86.0334 7.748C85.8254 8.004 85.8014 8.372 85.9614 8.852ZM102.667 7.1V21.5H101.131V7.1H102.667ZM109.123 20.756L109.075 21.5H102.619V20.756H109.123ZM107.995 13.94V14.66H102.619V13.94H107.995ZM109.099 7.1V7.844H102.619V7.1H109.099ZM110.467 18.068L109.147 21.5H105.499L106.315 20.756C107.115 20.756 107.755 20.644 108.235 20.42C108.731 20.18 109.131 19.86 109.435 19.46C109.739 19.044 110.003 18.58 110.227 18.068H110.467ZM107.995 14.612V15.98H107.731V15.668C107.731 15.396 107.651 15.164 107.491 14.972C107.331 14.764 107.083 14.66 106.747 14.66V14.612H107.995ZM107.995 12.62V13.988H106.747V13.94C107.083 13.94 107.331 13.844 107.491 13.652C107.651 13.444 107.731 13.204 107.731 12.932V12.62H107.995ZM109.099 7.772V9.428H108.835V9.068C108.835 8.732 108.723 8.444 108.499 8.204C108.291 7.964 108.003 7.844 107.635 7.844V7.772H109.099ZM109.099 6.716V7.34L106.363 7.1C106.859 7.1 107.387 7.06 107.947 6.98C108.507 6.884 108.891 6.796 109.099 6.716ZM101.179 19.964L101.491 21.5H99.4035V21.26C99.4035 21.26 99.4595 21.26 99.5715 21.26C99.6835 21.26 99.7395 21.26 99.7395 21.26C100.139 21.26 100.467 21.132 100.723 20.876C100.979 20.62 101.115 20.316 101.131 19.964H101.179ZM101.179 8.612H101.131C101.115 8.244 100.979 7.94 100.723 7.7C100.467 7.46 100.139 7.34 99.7395 7.34C99.7395 7.34 99.6835 7.34 99.5715 7.34C99.4595 7.34 99.4035 7.34 99.4035 7.34V7.1H101.491L101.179 8.612ZM116.801 6.764C117.249 6.764 117.641 6.78 117.977 6.812C118.313 6.844 118.601 6.884 118.841 6.932C119.097 6.964 119.313 7.012 119.489 7.076C119.681 7.124 119.849 7.172 119.993 7.22L120.017 9.596H119.729C119.729 8.94 119.505 8.428 119.057 8.06C118.609 7.676 117.913 7.484 116.969 7.484C116.169 7.484 115.481 7.708 114.905 8.156C114.345 8.588 114.073 9.124 114.089 9.764C114.089 9.972 114.113 10.188 114.161 10.412C114.225 10.62 114.321 10.828 114.449 11.036C114.593 11.244 114.785 11.452 115.025 11.66L119.873 15.404C120.241 15.708 120.513 16.1 120.689 16.58C120.865 17.044 120.961 17.508 120.977 17.972C120.993 18.676 120.809 19.324 120.425 19.916C120.041 20.508 119.521 20.98 118.865 21.332C118.225 21.668 117.513 21.836 116.729 21.836C116.265 21.836 115.761 21.796 115.217 21.716C114.689 21.636 114.193 21.516 113.729 21.356C113.265 21.18 112.881 20.964 112.577 20.708C112.529 20.484 112.505 20.204 112.505 19.868C112.505 19.516 112.529 19.148 112.577 18.764C112.641 18.38 112.721 18.036 112.817 17.732H113.105C113.041 18.452 113.145 19.068 113.417 19.58C113.689 20.092 114.089 20.484 114.617 20.756C115.145 21.012 115.761 21.132 116.465 21.116C117.457 21.084 118.233 20.836 118.793 20.372C119.369 19.892 119.657 19.26 119.657 18.476C119.657 18.092 119.585 17.748 119.441 17.444C119.313 17.124 119.097 16.828 118.793 16.556L113.993 12.86C113.545 12.476 113.241 12.052 113.081 11.588C112.921 11.124 112.841 10.684 112.841 10.268C112.841 9.612 113.017 9.02 113.369 8.492C113.721 7.964 114.193 7.548 114.785 7.244C115.393 6.924 116.065 6.764 116.801 6.764ZM119.969 6.98L119.993 7.412H118.289V6.98H119.969ZM129.999 7.172V21.5H128.439V7.172H129.999ZM135.807 7.076V7.796H122.631V7.076H135.807ZM135.807 7.748V9.404H135.543V9.02C135.543 8.684 135.431 8.404 135.207 8.18C134.999 7.94 134.711 7.812 134.343 7.796V7.748H135.807ZM135.807 6.692V7.316L133.119 7.076C133.439 7.076 133.775 7.06 134.127 7.028C134.495 6.98 134.831 6.924 135.135 6.86C135.439 6.796 135.663 6.74 135.807 6.692ZM128.487 19.964V21.5H126.735V21.26C126.751 21.26 126.799 21.26 126.879 21.26C126.975 21.26 127.023 21.26 127.023 21.26C127.407 21.26 127.735 21.132 128.007 20.876C128.279 20.62 128.423 20.316 128.439 19.964H128.487ZM129.927 19.964H129.999C130.015 20.316 130.159 20.62 130.431 20.876C130.703 21.132 131.031 21.26 131.415 21.26C131.415 21.26 131.455 21.26 131.535 21.26C131.631 21.26 131.679 21.26 131.679 21.26V21.5H129.927V19.964ZM124.095 7.748V7.796C123.727 7.812 123.431 7.94 123.207 8.18C122.999 8.404 122.895 8.684 122.895 9.02V9.404H122.631V7.748H124.095ZM122.631 6.692C122.775 6.74 122.991 6.796 123.279 6.86C123.583 6.924 123.919 6.98 124.287 7.028C124.655 7.06 124.999 7.076 125.319 7.076L122.631 7.316V6.692ZM142.522 6.764L149.122 21.356H147.226L142.114 8.9L142.522 6.764ZM137.89 19.748C137.714 20.228 137.738 20.604 137.962 20.876C138.186 21.132 138.442 21.26 138.73 21.26H138.922V21.5H134.338V21.26C134.338 21.26 134.37 21.26 134.434 21.26C134.498 21.26 134.53 21.26 134.53 21.26C134.866 21.26 135.21 21.148 135.562 20.924C135.914 20.684 136.218 20.292 136.474 19.748H137.89ZM142.522 6.764L142.69 8.42L137.194 21.428H135.682L141.37 9.236C141.37 9.236 141.41 9.14 141.49 8.948C141.586 8.756 141.69 8.524 141.802 8.252C141.93 7.964 142.042 7.684 142.138 7.412C142.234 7.14 142.29 6.924 142.306 6.764H142.522ZM145.354 15.908V16.628H138.994V15.908H145.354ZM146.578 19.748H148.402C148.642 20.292 148.938 20.684 149.29 20.924C149.642 21.148 149.978 21.26 150.298 21.26C150.298 21.26 150.33 21.26 150.394 21.26C150.458 21.26 150.49 21.26 150.49 21.26V21.5H145.57V21.26H145.762C146.034 21.26 146.282 21.132 146.506 20.876C146.73 20.604 146.754 20.228 146.578 19.748ZM151.792 7.124L156.232 15.02L155.248 15.86L149.704 7.124H151.792ZM156.592 15.308V21.5H155.032V15.308H156.592ZM160.624 7.124H162.136L156.424 15.812L155.536 15.548L160.624 7.124ZM159.712 8.636C159.888 8.316 159.896 8.02 159.736 7.748C159.576 7.476 159.32 7.34 158.968 7.34C158.968 7.34 158.92 7.34 158.824 7.34C158.728 7.34 158.68 7.34 158.68 7.34V7.1H163.696V7.34H163.408C162.96 7.34 162.536 7.468 162.136 7.724C161.752 7.964 161.448 8.244 161.224 8.564L159.712 8.636ZM152.632 8.612L150.592 8.54C150.336 8.172 150.016 7.884 149.632 7.676C149.264 7.452 148.848 7.34 148.384 7.34H148.096V7.1H153.664V7.34C153.664 7.34 153.616 7.34 153.52 7.34C153.424 7.34 153.376 7.34 153.376 7.34C153.024 7.34 152.768 7.484 152.608 7.772C152.464 8.044 152.472 8.324 152.632 8.612ZM155.104 19.964V21.5H153.352V21.26C153.368 21.26 153.416 21.26 153.496 21.26C153.592 21.26 153.64 21.26 153.64 21.26C154.024 21.26 154.344 21.132 154.6 20.876C154.872 20.62 155.016 20.316 155.032 19.964H155.104ZM156.52 19.964H156.592C156.608 20.316 156.744 20.62 157 20.876C157.272 21.132 157.6 21.26 157.984 21.26C157.984 21.26 158.032 21.26 158.128 21.26C158.224 21.26 158.272 21.26 158.272 21.26V21.5H156.52V19.964Z" fill="white"/>
<defs>
<clipPath id="clip0_182_185">
<rect width="29.0131" height="28" fill="white"/>
</clipPath>
</defs>
</svg>
